PathFileType	4	(X/Y/Z)	distal_points_all_segments.trc
DataRate	CameraRate	NumFrames	NumMarkers	Units	OrigDataRate	OrigDataStartFrame	OrigNumFrames
60.0	60.0	26	18	m	60.0	73	290
Frame#	Time	worldbody			l_thigh			l_shank			l_foot			l_toes			r_thigh			r_shank			r_foot			r_toes			head			torso			l_uarm			l_larm			l_hand			r_uarm			r_larm			r_hand			pelvis_shifted		
		X1	Y1	Z1	X2	Y2	Z2	X3	Y3	Z3	X4	Y4	Z4	X5	Y5	Z5	X6	Y6	Z6	X7	Y7	Z7	X8	Y8	Z8	X9	Y9	Z9	X10	Y10	Z10	X11	Y11	Z11	X12	Y12	Z12	X13	Y13	Z13	X14	Y14	Z14	X15	Y15	Z15	X16	Y16	Z16	X17	Y17	Z17	X18	Y18	Z18
73	1.20000	0.000	0.000	0.000	0.255	0.688	0.471	0.243	0.670	0.083	0.244	0.683	-0.078	0.200	0.816	0.028	0.484	0.718	0.469	0.508	0.697	0.085	0.497	0.694	-0.076	0.517	0.846	0.023	0.370	0.711	1.566	0.365	0.723	1.350	0.155	0.635	1.109	0.093	0.702	0.887	-0.014	0.771	0.683	0.611	0.699	1.110	0.630	0.777	0.883	0.677	0.898	0.680	0.376	0.700	0.933
74	1.21667	0.000	0.000	0.000	0.254	0.690	0.471	0.243	0.671	0.084	0.243	0.682	-0.078	0.200	0.817	0.027	0.484	0.718	0.469	0.507	0.697	0.085	0.497	0.694	-0.076	0.517	0.846	0.022	0.370	0.712	1.566	0.366	0.724	1.350	0.153	0.634	1.109	0.092	0.702	0.887	-0.010	0.772	0.681	0.613	0.700	1.111	0.631	0.777	0.884	0.675	0.901	0.681	0.376	0.700	0.934
75	1.23333	0.000	0.000	0.000	0.254	0.690	0.472	0.243	0.671	0.084	0.242	0.682	-0.077	0.200	0.817	0.028	0.484	0.718	0.469	0.507	0.697	0.085	0.497	0.693	-0.076	0.517	0.845	0.022	0.370	0.712	1.565	0.366	0.724	1.351	0.152	0.633	1.109	0.091	0.702	0.888	-0.006	0.774	0.680	0.615	0.699	1.112	0.632	0.777	0.885	0.676	0.902	0.684	0.375	0.700	0.934
76	1.25000	0.000	0.000	0.000	0.254	0.689	0.472	0.242	0.671	0.084	0.242	0.683	-0.077	0.200	0.817	0.028	0.484	0.718	0.469	0.507	0.696	0.085	0.497	0.693	-0.076	0.517	0.844	0.022	0.370	0.713	1.565	0.366	0.724	1.352	0.151	0.631	1.110	0.090	0.702	0.889	-0.003	0.777	0.681	0.617	0.697	1.113	0.633	0.777	0.887	0.677	0.901	0.686	0.375	0.699	0.934
77	1.26667	0.000	0.000	0.000	0.255	0.688	0.471	0.242	0.671	0.084	0.242	0.684	-0.078	0.200	0.818	0.028	0.484	0.718	0.470	0.507	0.697	0.086	0.497	0.693	-0.075	0.517	0.845	0.022	0.369	0.714	1.565	0.366	0.724	1.352	0.150	0.630	1.111	0.089	0.703	0.890	-0.001	0.781	0.682	0.620	0.695	1.115	0.633	0.777	0.889	0.675	0.900	0.686	0.375	0.699	0.934
78	1.28333	0.000	0.000	0.000	0.255	0.689	0.471	0.242	0.671	0.084	0.243	0.683	-0.078	0.200	0.818	0.028	0.484	0.718	0.470	0.507	0.698	0.086	0.497	0.694	-0.075	0.517	0.846	0.023	0.369	0.715	1.565	0.366	0.725	1.352	0.147	0.629	1.112	0.088	0.703	0.892	0.003	0.785	0.682	0.625	0.694	1.117	0.633	0.777	0.891	0.669	0.898	0.685	0.375	0.700	0.934
79	1.30000	0.000	0.000	0.000	0.255	0.689	0.471	0.242	0.671	0.084	0.243	0.683	-0.078	0.199	0.817	0.027	0.484	0.718	0.471	0.507	0.699	0.087	0.497	0.695	-0.074	0.516	0.847	0.024	0.368	0.716	1.565	0.366	0.726	1.352	0.144	0.627	1.114	0.086	0.703	0.894	0.010	0.789	0.683	0.630	0.694	1.119	0.634	0.779	0.893	0.663	0.894	0.684	0.375	0.700	0.934
80	1.31667	0.000	0.000	0.000	0.254	0.689	0.471	0.242	0.671	0.084	0.242	0.682	-0.078	0.199	0.817	0.026	0.484	0.718	0.470	0.507	0.699	0.086	0.497	0.696	-0.075	0.517	0.847	0.024	0.368	0.716	1.566	0.365	0.726	1.352	0.141	0.625	1.116	0.086	0.703	0.896	0.016	0.791	0.683	0.635	0.695	1.121	0.633	0.782	0.896	0.659	0.889	0.682	0.375	0.700	0.934
81	1.33333	0.000	0.000	0.000	0.255	0.689	0.471	0.242	0.671	0.084	0.242	0.682	-0.078	0.199	0.817	0.026	0.485	0.718	0.470	0.507	0.699	0.086	0.497	0.696	-0.075	0.518	0.847	0.023	0.367	0.716	1.566	0.365	0.727	1.353	0.138	0.623	1.118	0.085	0.705	0.898	0.020	0.791	0.684	0.639	0.696	1.123	0.632	0.786	0.900	0.653	0.885	0.681	0.375	0.700	0.934
82	1.35000	0.000	0.000	0.000	0.255	0.688	0.471	0.242	0.672	0.083	0.243	0.682	-0.079	0.200	0.817	0.025	0.485	0.719	0.470	0.508	0.698	0.086	0.497	0.694	-0.075	0.519	0.846	0.022	0.367	0.717	1.566	0.365	0.727	1.353	0.134	0.621	1.120	0.086	0.706	0.901	0.024	0.790	0.684	0.644	0.696	1.125	0.632	0.789	0.903	0.644	0.883	0.682	0.375	0.700	0.934
83	1.36667	0.000	0.000	0.000	0.255	0.688	0.471	0.241	0.672	0.084	0.244	0.682	-0.078	0.200	0.818	0.025	0.485	0.719	0.470	0.509	0.697	0.086	0.497	0.692	-0.074	0.519	0.845	0.022	0.367	0.717	1.566	0.365	0.727	1.354	0.130	0.619	1.122	0.086	0.706	0.903	0.033	0.787	0.683	0.650	0.694	1.128	0.632	0.789	0.908	0.631	0.881	0.685	0.376	0.700	0.934
84	1.38333	0.000	0.000	0.000	0.256	0.688	0.471	0.242	0.672	0.084	0.244	0.681	-0.078	0.200	0.817	0.025	0.485	0.719	0.471	0.509	0.698	0.087	0.497	0.692	-0.074	0.519	0.845	0.022	0.367	0.718	1.566	0.365	0.728	1.354	0.126	0.614	1.125	0.087	0.705	0.907	0.047	0.784	0.683	0.656	0.692	1.133	0.633	0.790	0.914	0.620	0.878	0.691	0.376	0.700	0.935
85	1.40000	0.000	0.000	0.000	0.256	0.689	0.471	0.242	0.671	0.084	0.243	0.680	-0.078	0.199	0.816	0.025	0.485	0.718	0.471	0.509	0.698	0.087	0.498	0.693	-0.074	0.519	0.846	0.022	0.367	0.720	1.566	0.365	0.728	1.355	0.120	0.609	1.129	0.088	0.705	0.911	0.062	0.784	0.686	0.663	0.689	1.139	0.634	0.790	0.922	0.610	0.878	0.699	0.377	0.700	0.935
86	1.41667	0.000	0.000	0.000	0.256	0.689	0.472	0.242	0.671	0.085	0.243	0.680	-0.078	0.198	0.816	0.026	0.486	0.717	0.470	0.509	0.698	0.086	0.498	0.694	-0.075	0.519	0.846	0.023	0.367	0.721	1.566	0.365	0.730	1.356	0.114	0.604	1.133	0.088	0.705	0.917	0.074	0.783	0.690	0.669	0.686	1.144	0.633	0.791	0.930	0.603	0.879	0.708	0.377	0.701	0.935
87	1.43333	0.000	0.000	0.000	0.255	0.689	0.472	0.241	0.671	0.085	0.244	0.682	-0.077	0.199	0.816	0.027	0.486	0.717	0.470	0.509	0.698	0.086	0.498	0.694	-0.074	0.518	0.846	0.023	0.366	0.722	1.566	0.365	0.731	1.357	0.108	0.600	1.138	0.090	0.705	0.923	0.083	0.782	0.695	0.675	0.685	1.149	0.631	0.793	0.938	0.595	0.878	0.716	0.377	0.701	0.935
88	1.45000	0.000	0.000	0.000	0.255	0.689	0.472	0.241	0.671	0.085	0.244	0.683	-0.077	0.200	0.818	0.028	0.486	0.718	0.471	0.509	0.698	0.087	0.497	0.694	-0.074	0.517	0.846	0.023	0.366	0.723	1.566	0.365	0.732	1.356	0.102	0.597	1.142	0.092	0.705	0.928	0.091	0.782	0.701	0.680	0.684	1.152	0.629	0.795	0.945	0.587	0.873	0.721	0.376	0.700	0.935
89	1.46667	0.000	0.000	0.000	0.255	0.689	0.472	0.242	0.671	0.085	0.243	0.684	-0.077	0.201	0.818	0.028	0.486	0.718	0.471	0.509	0.699	0.087	0.497	0.695	-0.074	0.517	0.847	0.024	0.365	0.724	1.566	0.365	0.733	1.356	0.096	0.594	1.147	0.094	0.704	0.934	0.098	0.788	0.709	0.686	0.684	1.157	0.627	0.796	0.952	0.580	0.865	0.726	0.376	0.700	0.936
90	1.48333	0.000	0.000	0.000	0.255	0.689	0.472	0.242	0.671	0.085	0.243	0.683	-0.077	0.202	0.818	0.028	0.486	0.718	0.471	0.509	0.698	0.087	0.497	0.694	-0.074	0.517	0.846	0.023	0.365	0.725	1.566	0.365	0.733	1.356	0.091	0.591	1.152	0.096	0.702	0.939	0.105	0.797	0.719	0.692	0.684	1.163	0.625	0.795	0.960	0.573	0.858	0.734	0.377	0.700	0.936
91	1.50000	0.000	0.000	0.000	0.255	0.688	0.472	0.242	0.671	0.085	0.243	0.681	-0.077	0.202	0.817	0.027	0.486	0.717	0.471	0.509	0.697	0.087	0.496	0.692	-0.074	0.519	0.845	0.022	0.365	0.726	1.566	0.365	0.734	1.356	0.085	0.588	1.158	0.099	0.699	0.945	0.114	0.803	0.729	0.698	0.683	1.170	0.624	0.794	0.970	0.567	0.858	0.745	0.377	0.700	0.936
92	1.51667	0.000	0.000	0.000	0.255	0.689	0.472	0.242	0.671	0.085	0.244	0.680	-0.077	0.201	0.817	0.025	0.486	0.717	0.471	0.508	0.697	0.087	0.496	0.691	-0.074	0.519	0.844	0.021	0.365	0.727	1.566	0.365	0.735	1.357	0.079	0.585	1.163	0.102	0.696	0.952	0.126	0.805	0.739	0.704	0.682	1.177	0.622	0.794	0.980	0.562	0.863	0.757	0.378	0.700	0.936
93	1.53333	0.000	0.000	0.000	0.255	0.690	0.472	0.242	0.672	0.085	0.244	0.681	-0.078	0.200	0.817	0.025	0.485	0.717	0.471	0.508	0.698	0.087	0.497	0.692	-0.074	0.518	0.845	0.021	0.364	0.728	1.566	0.364	0.736	1.357	0.074	0.581	1.168	0.106	0.694	0.959	0.142	0.804	0.748	0.708	0.683	1.184	0.620	0.794	0.989	0.556	0.865	0.768	0.378	0.699	0.936
94	1.55000	0.000	0.000	0.000	0.255	0.690	0.472	0.242	0.672	0.085	0.243	0.682	-0.078	0.200	0.817	0.026	0.484	0.718	0.471	0.507	0.699	0.087	0.498	0.693	-0.074	0.517	0.846	0.022	0.363	0.730	1.566	0.363	0.736	1.358	0.069	0.577	1.174	0.109	0.692	0.967	0.159	0.804	0.761	0.713	0.683	1.190	0.619	0.794	0.998	0.551	0.860	0.777	0.377	0.699	0.936
95	1.56667	0.000	0.000	0.000	0.254	0.690	0.472	0.242	0.672	0.085	0.242	0.682	-0.077	0.199	0.817	0.027	0.484	0.718	0.471	0.507	0.699	0.087	0.498	0.694	-0.074	0.516	0.847	0.023	0.362	0.731	1.566	0.363	0.737	1.358	0.064	0.575	1.181	0.111	0.690	0.975	0.176	0.805	0.775	0.717	0.682	1.196	0.618	0.793	1.006	0.545	0.852	0.785	0.377	0.699	0.936
96	1.58333	0.000	0.000	0.000	0.253	0.691	0.472	0.241	0.671	0.085	0.241	0.681	-0.077	0.199	0.817	0.027	0.485	0.718	0.472	0.507	0.699	0.088	0.498	0.694	-0.073	0.515	0.847	0.023	0.362	0.733	1.565	0.362	0.739	1.359	0.057	0.574	1.188	0.114	0.687	0.984	0.191	0.806	0.790	0.721	0.681	1.202	0.617	0.790	1.014	0.537	0.849	0.795	0.377	0.699	0.936
97	1.60000	0.000	0.000	0.000	0.253	0.691	0.473	0.241	0.672	0.085	0.241	0.681	-0.077	0.199	0.817	0.026	0.485	0.719	0.472	0.507	0.699	0.088	0.498	0.694	-0.073	0.515	0.846	0.023	0.361	0.734	1.565	0.362	0.740	1.360	0.050	0.574	1.195	0.117	0.684	0.993	0.201	0.806	0.804	0.725	0.681	1.208	0.615	0.788	1.021	0.526	0.852	0.807	0.377	0.699	0.936
98	1.61667	0.000	0.000	0.000	0.253	0.693	0.472	0.241	0.672	0.085	0.242	0.681	-0.077	0.199	0.817	0.026	0.485	0.720	0.472	0.507	0.698	0.088	0.497	0.693	-0.073	0.516	0.846	0.023	0.360	0.735	1.565	0.362	0.741	1.361	0.045	0.573	1.201	0.120	0.681	1.000	0.208	0.805	0.815	0.728	0.681	1.213	0.614	0.786	1.028	0.517	0.858	0.820	0.377	0.699	0.936
